<svg width="572" height="158" viewBox="0 0 572 158" fill="none" xmlns="http://www.w3.org/2000/svg">
<path d="M173.288 38.4861L189.507 37.8623C194.636 37.8623 199.765 39.1099 204.894 41.605C207.943 43.0605 210.646 44.8626 213.003 47.0112C215.359 49.1598 217.335 52.1055 218.929 55.8482C220.523 59.5216 221.32 64.0267 221.32 69.3636C221.32 74.7004 220.176 80.1066 217.889 85.5821C215.602 90.9882 212.622 95.4934 208.948 99.0975C205.275 102.702 201.151 105.578 196.576 107.727C192.071 109.806 187.462 110.845 182.749 110.845C178.105 110.845 174.432 110.326 171.729 109.286C169.095 108.177 167.778 106.34 167.778 103.776C167.778 102.528 167.917 98.439 168.194 91.508C168.541 84.5771 168.714 78.5818 168.714 73.5222C168.714 68.4626 168.645 63.9574 168.506 60.0068C168.367 55.9868 168.194 52.7639 167.986 50.3381C167.848 47.9122 167.778 46.3181 167.778 45.5557C165.144 45.6943 163.342 45.7636 162.372 45.7636C161.402 45.7636 160.466 45.4171 159.565 44.724C158.733 43.9616 158.317 42.9912 158.317 41.813C158.317 40.6347 158.733 39.699 159.565 39.0059C160.466 38.2435 161.471 37.8623 162.58 37.8623L173.288 38.4861ZM177.447 49.9222C177.308 52.2787 177.17 55.5016 177.031 59.5909C176.892 63.6109 176.823 69.225 176.823 76.4332C176.823 83.6414 177.135 92.3051 177.759 102.424C180.046 103.117 182.992 103.464 186.596 103.464C193.319 103.464 199.522 100.622 205.206 94.9389C210.889 89.2555 213.731 81.978 213.731 73.1063C213.731 64.1654 211.062 57.269 205.725 52.4174C200.388 47.4964 192.799 45.0359 182.957 45.0359C180.531 45.0359 178.798 45.0705 177.759 45.1398C177.759 45.9022 177.655 47.4964 177.447 49.9222ZM248.705 89.5327L236.333 88.4931C235.155 88.4931 234.219 88.597 233.526 88.805C233.942 92.7556 235.605 96.0478 238.516 98.6816C241.497 101.315 244.997 102.632 249.017 102.632C252.898 102.632 256.398 101.211 259.517 98.3697C260.626 97.3994 261.458 96.9142 262.012 96.9142C262.567 96.9142 263.052 97.1221 263.468 97.538C263.884 97.9539 264.092 98.4044 264.092 98.8895C264.092 100.9 262.116 103.395 258.166 106.375C254.284 109.355 249.849 110.845 244.858 110.845C239.937 110.845 235.64 108.835 231.967 104.816C228.363 100.796 226.56 95.8053 226.56 89.8446C226.56 82.2205 229.437 75.8094 235.19 70.6112C240.942 65.4129 247.284 62.8138 254.215 62.8138C257.126 62.8138 259.483 63.3336 261.285 64.3733C263.156 65.3436 264.092 66.6259 264.092 68.22C264.092 69.7448 263.607 70.9924 262.636 71.9627C261.735 72.933 260.834 73.4182 259.933 73.4182C259.032 73.4182 257.473 73.0023 255.255 72.1706C253.106 71.3389 251.027 70.9231 249.017 70.9231C245.274 70.9231 242.017 72.0667 239.244 74.3539C236.541 76.5718 234.739 79.3442 233.838 82.6711L248.185 81.8393C251.373 81.8393 252.967 83.0869 252.967 85.5821C252.967 88.2158 251.547 89.5327 248.705 89.5327ZM305.911 96.2904C306.397 97.538 307.402 99.2361 308.926 101.385C310.521 103.464 311.318 105.162 311.318 106.479C311.318 107.796 310.971 108.87 310.278 109.702C309.585 110.464 308.649 110.845 307.471 110.845C304.629 110.845 302.099 107.9 299.882 102.008L299.05 99.7213C295.515 107.137 290.213 110.845 283.143 110.845C279.608 110.845 276.663 109.737 274.306 107.519C272.019 105.231 270.875 102.39 270.875 98.9935C270.875 93.726 272.677 89.1862 276.282 85.3741C279.886 81.5621 284.599 79.5175 290.421 79.2402C289.035 76.8144 287.475 75.0123 285.742 73.8341C284.079 72.5865 282.554 71.8587 281.168 71.6508C279.782 71.4429 278.465 71.3389 277.217 71.3389C276.039 71.2696 275.103 70.9924 274.41 70.5072C273.717 70.022 273.371 69.0863 273.371 67.7002C273.371 66.2447 273.925 65.0664 275.034 64.1654C276.212 63.2643 277.598 62.8138 279.193 62.8138C283.698 62.8138 288.134 65.0664 292.5 69.5715C296.867 74.0766 300.679 81.1462 303.936 90.7803L305.911 96.2904ZM287.822 84.7504C285.326 84.7504 283.074 85.5821 281.064 87.2455C279.123 88.9089 278.153 91.0575 278.153 93.6913C278.153 96.3251 279.019 98.543 280.752 100.345C282.554 102.078 284.703 102.944 287.198 102.944C289.693 102.944 291.842 102.078 293.644 100.345C295.446 98.543 296.347 96.429 296.347 94.0032C296.347 92.2705 296.035 90.6763 295.411 89.2208C294.787 87.696 294.406 86.7603 294.267 86.4138C292.465 85.3048 290.317 84.7504 287.822 84.7504ZM320.153 128.208C320.846 125.504 321.505 121.519 322.128 116.252C322.821 110.984 323.168 104.954 323.168 98.1618C323.168 91.3694 322.856 82.0473 322.232 70.1953H319.009C316.306 70.1953 314.955 69.017 314.955 66.6605C314.955 64.304 316.306 63.1257 319.009 63.1257C320.396 63.1257 321.435 63.1604 322.128 63.2297C322.406 54.566 325.663 47.2538 331.901 41.2931C338.208 35.2632 344.515 32.2482 350.823 32.2482C353.318 32.2482 355.362 32.6987 356.956 33.5998C358.62 34.5008 359.452 35.8177 359.452 37.5504C359.452 39.2139 358.966 40.5307 357.996 41.5011C357.095 42.4021 356.194 42.8526 355.293 42.8526C354.392 42.8526 352.833 42.4714 350.615 41.709C348.397 40.8773 346.213 40.4614 344.065 40.4614C339.768 40.4614 336.094 42.3674 333.045 46.1795C329.995 49.9222 328.47 54.4273 328.47 59.6949V63.6455H331.797L346.144 62.8138C348.847 62.8138 350.199 64.096 350.199 66.6605C350.199 69.225 348.847 70.5072 346.144 70.5072L331.797 69.6755C330.272 69.6755 329.163 69.7101 328.47 69.7794C328.609 77.4035 328.921 85.9633 329.406 95.4587C329.96 104.954 330.238 114.311 330.238 123.529C330.238 134.757 328.054 140.371 323.688 140.371C320.638 140.371 319.113 138.396 319.113 134.445C319.113 133.059 319.46 130.98 320.153 128.208ZM387.044 48.5707C386.143 47.4617 384.756 46.4567 382.885 45.5557C381.083 44.5854 378.865 44.1002 376.231 44.1002C373.598 44.1002 371.172 45.0705 368.954 47.0112C366.805 48.9519 365.731 51.3777 365.731 54.2887C365.731 57.1304 366.978 59.4869 369.474 61.3583C372.038 63.2297 375.088 64.6852 378.623 65.7248C382.227 66.7645 385.796 67.9427 389.331 69.2596C392.935 70.5072 395.985 72.5865 398.48 75.4975C401.044 78.3392 402.326 82.0126 402.326 86.5177C402.326 93.0329 399.589 98.7163 394.113 103.568C388.707 108.42 381.88 110.845 373.632 110.845C368.157 110.845 363.721 109.494 360.325 106.791C356.998 104.018 355.334 101.142 355.334 98.1618C355.334 96.5677 355.785 95.2854 356.686 94.3151C357.587 93.2754 358.696 92.7556 360.013 92.7556C361.399 92.7556 362.577 93.1715 363.548 94.0032C364.518 94.7656 365.419 95.7359 366.251 96.9142C367.152 98.0925 368.157 99.2707 369.266 100.449C371.761 103.221 375.261 104.608 379.766 104.608C384.341 104.608 388.014 103.291 390.786 100.657C393.559 98.0232 394.945 94.523 394.945 90.1565C394.945 86.899 393.663 84.2652 391.098 82.2552C388.534 80.1759 385.415 78.5818 381.741 77.4728C378.137 76.2946 374.499 75.0816 370.825 73.8341C367.221 72.5865 364.137 70.7151 361.572 68.22C359.008 65.6555 357.726 62.5019 357.726 58.7592C357.726 54.9472 358.592 51.6549 360.325 48.8826C362.127 46.0409 364.345 43.8576 366.978 42.3328C372.246 39.3525 377.202 37.8623 381.845 37.8623C386.558 37.8623 390.682 38.8673 394.217 40.8773C397.752 42.8873 399.519 45.3131 399.519 48.1548C399.519 49.6103 399.104 50.7886 398.272 51.6896C397.44 52.5906 396.262 53.0411 394.737 53.0411C393.212 53.0411 391.757 52.5906 390.371 51.6896C389.054 50.7193 387.945 49.6796 387.044 48.5707ZM449.262 97.0182L449.055 111.573C449.055 118.366 446.074 124.846 440.114 131.015C434.153 137.252 427.499 140.371 420.152 140.371C416.479 140.371 413.291 139.332 410.588 137.252C407.885 135.173 406.533 132.921 406.533 130.495C406.533 129.247 406.949 128.138 407.781 127.168C408.682 126.198 409.721 125.712 410.899 125.712C412.147 125.712 413.256 126.059 414.226 126.752C415.266 127.445 416.202 128.208 417.033 129.039C417.934 129.871 419.251 130.633 420.984 131.326C422.786 132.02 424.796 132.366 427.014 132.366C431.381 132.366 435.123 130.737 438.242 127.48C441.361 124.292 442.921 120.48 442.921 116.044C442.921 109.944 442.886 105.613 442.817 103.048C439.628 108.246 435.643 110.845 430.861 110.845C426.91 110.845 423.756 109.425 421.4 106.583C419.113 103.741 417.519 100.276 416.618 96.1865L412.667 78.3045C412.251 76.2946 411.315 74.5272 409.86 73.0023C408.474 71.4082 407.781 69.8141 407.781 68.22C407.781 66.6259 408.335 65.3436 409.444 64.3733C410.553 63.3336 411.766 62.8138 413.083 62.8138C414.4 62.8138 415.474 63.0564 416.306 63.5416C417.137 64.0267 417.83 64.7545 418.385 65.7248C419.147 67.1803 419.736 68.9477 420.152 71.027L424.727 92.7556C425.489 96.1518 426.494 98.7509 427.742 100.553C429.059 102.286 431.069 103.152 433.772 103.152C436.475 103.152 438.623 102.147 440.218 100.137C441.881 98.0578 442.713 95.4934 442.713 92.4437L441.985 69.0517C441.985 67.1803 442.435 65.6902 443.336 64.5812C444.307 63.4029 445.45 62.8138 446.767 62.8138C448.084 62.8138 449.158 63.3683 449.99 64.4772C450.822 65.5169 451.238 66.9724 451.238 68.8438C451.238 70.6458 451.03 73.2103 450.614 76.5371C449.713 83.7454 449.262 90.5724 449.262 97.0182ZM471.327 80.4878L471.951 105.855C471.951 107.311 471.535 108.524 470.704 109.494C469.872 110.395 468.797 110.845 467.481 110.845C466.164 110.845 465.02 110.395 464.05 109.494C463.149 108.524 462.698 107.311 462.698 105.855L463.426 85.2702C463.426 85.2702 463.183 79.4828 462.698 67.9081C462.698 66.4526 463.149 65.2397 464.05 64.2693C465.02 63.299 466.164 62.8138 467.481 62.8138C468.797 62.8138 469.872 63.299 470.704 64.2693C471.535 65.1703 471.951 66.314 471.951 67.7002C471.951 69.0863 471.916 70.126 471.847 70.8191C475.728 65.4822 480.199 62.8138 485.259 62.8138C492.536 62.8138 497.214 67.7002 499.294 77.4728L503.244 95.3547C503.66 96.9489 504.492 98.6816 505.74 100.553C507.056 102.355 507.715 103.984 507.715 105.439C507.715 109.043 505.982 110.845 502.517 110.845C499.051 110.845 496.799 108.108 495.759 102.632L491.808 80.9037C490.491 73.9727 486.922 70.5072 481.1 70.5072C478.12 70.5072 475.798 71.5122 474.134 73.5222C472.471 75.5322 471.535 77.854 471.327 80.4878ZM536.338 70.9231C531.764 70.9231 528.021 72.5172 525.11 75.7054C522.269 78.8244 520.848 82.5671 520.848 86.9336C520.848 91.3001 522.338 95.0082 525.318 98.0578C528.368 101.107 532.076 102.632 536.442 102.632C540.324 102.632 543.824 101.211 546.943 98.3697C548.052 97.3994 548.884 96.9142 549.438 96.9142C549.992 96.9142 550.478 97.1221 550.894 97.538C551.309 97.9539 551.517 98.4044 551.517 98.8895C551.517 100.9 549.542 103.395 545.591 106.375C541.71 109.355 537.274 110.845 532.284 110.845C527.363 110.845 523.066 108.835 519.392 104.816C515.788 100.796 513.986 95.8053 513.986 89.8446C513.986 82.2205 516.862 75.8094 522.615 70.6112C528.368 65.4129 534.71 62.8138 541.641 62.8138C544.552 62.8138 546.908 63.3336 548.71 64.3733C550.582 65.3436 551.517 66.6259 551.517 68.22C551.517 69.7448 551.032 70.9924 550.062 71.9627C549.161 72.933 548.26 73.4182 547.359 73.4182C546.458 73.4182 544.898 73.0023 542.68 72.1706C540.532 71.3389 538.418 70.9231 536.338 70.9231Z" fill="white"/>
<path d="M68.1823 8.16467C69.4236 8.64412 69.8186 9.46799 69.3674 10.6363C69.17 11.1474 68.6382 11.6553 67.772 12.1598C64.0037 14.3125 60.4005 16.9066 56.9624 19.9421C53.5526 22.9046 49.6177 27.5523 45.1578 33.8852C40.7709 40.2463 37.0969 47.2603 34.1356 54.9272C25.6466 76.9058 23.0382 95.2819 26.3106 110.056C27.2718 113.867 27.4845 116.467 26.9487 117.854C26.4128 119.241 25.6247 120.196 24.5843 120.717C23.5887 121.339 22.5067 121.425 21.3384 120.974C16.5922 119.14 14.3736 112.284 14.6827 100.404C14.9917 88.5239 18.2485 74.5518 24.4531 58.4878C26.9632 51.9891 30.0291 45.7891 33.6511 39.8878C37.346 34.0146 40.944 29.1529 44.445 25.3026C48.0472 21.4075 51.511 18.0883 54.8362 15.3449C58.1896 12.5284 61.008 10.5542 63.2912 9.42223C65.6757 8.24543 67.3061 7.82624 68.1823 8.16467Z" fill="#4A6CF7"/>
<path d="M101.024 37.481C101.821 38.0817 101.937 38.757 101.371 39.5072C101.124 39.8354 100.636 40.0926 99.9076 40.2788C96.7474 41.0582 93.6157 42.1899 90.5126 43.6739C87.4448 45.111 83.6523 47.656 79.1352 51.309C74.665 54.9972 70.575 59.3028 66.8651 64.2256C56.2302 78.3378 50.5768 91.0583 49.9049 102.387C49.8159 105.334 49.4358 107.253 48.7645 108.144C48.0932 109.035 47.3288 109.561 46.4713 109.724C45.6253 109.968 44.8273 109.808 44.0772 109.242C41.0297 106.946 40.8366 101.544 43.498 93.038C46.1594 84.5317 51.3766 75.1212 59.1497 64.8067C62.2942 60.634 65.7785 56.7908 69.6026 53.2772C73.4735 49.7989 77.0668 47.0303 80.3827 44.9715C83.7807 42.9011 86.9606 41.2176 89.9224 39.9212C92.9196 38.5778 95.3578 37.7322 97.2373 37.3842C99.1989 37.0248 100.461 37.057 101.024 37.481Z" fill="#4A6CF7"/>
<path d="M121.828 76.3572C122.225 76.9919 122.125 77.496 121.528 77.8695C121.266 78.0329 120.856 78.082 120.295 78.0168C117.873 77.7141 115.376 77.6658 112.805 77.8719C110.27 78.0546 106.931 78.8186 102.787 80.1639C98.6664 81.5465 94.6462 83.4635 90.7264 85.9148C79.4898 92.942 72.1153 100.332 68.603 108.085C67.7495 110.125 66.9681 111.367 66.2588 111.81C65.5495 112.254 64.8728 112.417 64.2287 112.301C63.5706 112.245 63.0548 111.919 62.6813 111.321C61.1638 108.895 62.4789 105.06 66.6266 99.8179C70.7743 94.5756 76.9545 89.3863 85.1673 84.2501C88.4898 82.1723 91.9617 80.4165 95.583 78.9827C99.2277 77.5862 102.487 76.6122 105.362 76.0607C108.298 75.5232 110.977 75.1981 113.399 75.0854C115.858 74.9494 117.793 75.0119 119.203 75.2728C120.673 75.5478 121.548 75.9093 121.828 76.3572Z" fill="#4A6CF7"/>
<path d="M38.62 136.208C38.3254 135.52 38.5019 135.037 39.1496 134.76C39.4329 134.639 39.8463 134.653 40.3897 134.804C42.7772 135.458 45.237 135.89 47.7692 136.099C50.3014 136.308 53.7096 136.046 57.9939 135.313C62.2956 134.621 66.5714 133.365 70.8214 131.546C83.0048 126.329 91.4277 120.161 96.0901 113.04C97.2471 111.155 98.2101 110.049 98.9791 109.719C99.7482 109.39 100.433 109.312 101.034 109.486C101.694 109.683 102.162 110.105 102.439 110.752C103.565 113.383 101.676 116.97 96.7721 121.513C91.8678 126.055 84.9633 130.233 76.0585 134.045C72.4561 135.587 68.7469 136.768 64.9308 137.588C61.1321 138.448 57.7614 138.909 54.8186 138.972C51.8527 139.092 49.1644 139.022 46.7536 138.761C44.3024 138.517 42.3917 138.138 41.0217 137.623C39.6285 137.165 38.828 136.694 38.62 136.208Z" fill="#4A6CF7"/>
</svg>
